<svg width="32" height="32" viewBox="0 0 32 32" fill="none" xmlns="http://www.w3.org/2000/svg">
<path fill-rule="evenodd" clip-rule="evenodd" d="M16 28C17.5759 28 19.1363 27.6896 20.5922 27.0866C22.0481 26.4835 23.371 25.5996 24.4853 24.4853C25.5996 23.371 26.4835 22.0481 27.0866 20.5922C27.6896 19.1363 28 17.5759 28 16C28 14.4241 27.6896 12.8637 27.0866 11.4078C26.4835 9.95189 25.5996 8.62902 24.4853 7.51472C23.371 6.40042 22.0481 5.5165 20.5922 4.91345C19.1363 4.31039 17.5759 4 16 4C12.8174 4 9.76516 5.26428 7.51472 7.51472C5.26428 9.76515 4 12.8174 4 16C4 19.1826 5.26428 22.2348 7.51472 24.4853C9.76516 26.7357 12.8174 28 16 28ZM15.6907 20.8533L22.3573 12.8533L20.3093 11.1467L14.576 18.0253L11.6093 15.0573L9.724 16.9427L13.724 20.9427L14.756 21.9747L15.6907 20.8533Z" fill="url(#paint0_linear_746_1478)"/>
<path fill-rule="evenodd" clip-rule="evenodd" d="M16 28C17.5759 28 19.1363 27.6896 20.5922 27.0866C22.0481 26.4835 23.371 25.5996 24.4853 24.4853C25.5996 23.371 26.4835 22.0481 27.0866 20.5922C27.6896 19.1363 28 17.5759 28 16C28 14.4241 27.6896 12.8637 27.0866 11.4078C26.4835 9.95189 25.5996 8.62902 24.4853 7.51472C23.371 6.40042 22.0481 5.5165 20.5922 4.91345C19.1363 4.31039 17.5759 4 16 4C12.8174 4 9.76516 5.26428 7.51472 7.51472C5.26428 9.76515 4 12.8174 4 16C4 19.1826 5.26428 22.2348 7.51472 24.4853C9.76516 26.7357 12.8174 28 16 28ZM15.6907 20.8533L22.3573 12.8533L20.3093 11.1467L14.576 18.0253L11.6093 15.0573L9.724 16.9427L13.724 20.9427L14.756 21.9747L15.6907 20.8533Z" fill="url(#paint1_linear_746_1478)"/>
<defs>
<linearGradient id="paint0_linear_746_1478" x1="8.93458" y1="28" x2="31.1136" y2="26.4769" gradientUnits="userSpaceOnUse">
<stop stop-color="#FF9623"/>
<stop offset="1" stop-color="#FF5912" stop-opacity="0.91"/>
</linearGradient>
<linearGradient id="paint1_linear_746_1478" x1="1.58333" y1="31.509" x2="25.8675" y2="31.9353" gradientUnits="userSpaceOnUse">
<stop offset="0.00679618" stop-color="#12AAFF" stop-opacity="0.83"/>
<stop offset="1" stop-color="#1577CA"/>
</linearGradient>
</defs>
</svg>
